<?xml version="1.0" encoding="UTF-8" standalone="no"?>
<svg version="1.1" width="900" height="600" xmlns="http://www.w3.org/2000/svg">

<rect fill="#feed00" x="0" y="0" width="900" height="300"/>
<rect fill="#009746" x="0" y="300" width="900" height="300"/>
<path fill="#00a0e4" d="m 0,0 h30 l 375,300 l -375,300 h -30 z"/>

<path fill="#feed00" d="m 225.544,156.435 l -102.544,-82.035 l 64.8,82.2 
	c -9,0 -21.8,-4.4 -29.7,-11.7 		c -8.2,-8.4 -17.2,-16.5 -33.3,-14.4 	c -14.4,2 -27,-3.7 -37.8,-17 
	c -1.6,11.7 6.7,28.9 22.7,33.1 		c 13,3.3 23,7.6 29.9,19.7 		c 6,9.6 14.2,17.5 24.3,24.4 
	l -106.2,-25.7 l 97.1,51.9 
	c -12.6,2.8 -23.2,1.3 -31.7,-4.5 	c -14.9,-8.9 -25.3,-7.3 -36.5,-3.6 	c -17.5,5.9 -30.3,-0.1 -42.5,-7.5 
	c 2.6,11.3 8.5,25.1 28.2,26.2 		c 11.8,-0.5 25.6,0.4 36.1,9.2 		c 9.8,7.9 20.5,13.8 31.8,17.9 
	l -107.8,0.7 l 104.5,26.5 

	c -9.4,4.3 -22.8,1.8 -30.6,-0.2 	c -14.8,-4.6 -26,-0.4 -36.9,7 		c -14.5,9.4 -27.1,6.7 -39.6,3.2 
	c 5.1,13.4 20.9,21 36.6,17 		c 21.8,-6.4 28.7,-3 35.1,0 		c 11.9,5.2 23.3,8.9 35.6,9.4 

	l -104.5,26.5 l 107.8,0.7 
	c -11.3,4.1 -22.0,10.0 -31.8,17.9 	c -10.5,8.8 -24.3,9.7 -36.1,9.2 	c -19.7,1.1 -25.6,14.9 -28.2,26.2 
	c 12.2,-7.4 25.0,-13.4 42.5,-7.5 	c 11.2,3.7 21.6,5.3 36.5,-3.6 		c 8.5,-5.8 19.1,-7.3 31.7,-4.5 
	l -97.1,51.9 l 106.2,-25.7 
	c -10.1,6.9 -18.3,14.8 -24.3,24.4 	c -6.9,12.1 -16.9,16.4 -29.9,19.7 	c -16.0,4.2 -24.3,21.4 -22.7,33.1 
	c 10.8,-13.3 23.4,-19.0 37.8,-17.0 	c 16.1,2.1 25.1,-6.0 33.3,-14.4 	c 7.9,-7.3 20.7,-11.7 29.7,-11.7 
	l -64.8,82.2 l 102.544,-82.035 
	a190,190,0,0,1,0,-287.13 z"/>

</svg>